PathFileType	4	(X/Y/Z)	/private/var/folders/ty/39vw2z0n5t95rf49mx2f_75w0000gn/T/tmpv4vay5ru_Sports2D/tmpv4vay5ru_Sports2D_px_person00.trc
DataRate	CameraRate	NumFrames	NumMarkers	Units	OrigDataRate	OrigDataStartFrame	OrigNumFrames
60	60	7	22	m	60	0	220
Frame#	Time	Hip			RHip			RKnee			RAnkle			RBigToe			RSmallToe			RHeel			LHip			LKnee			LAnkle			LBigToe			LSmallToe			LHeel			Neck			Head			Nose			RShoulder			RElbow			RWrist			LShoulder			LElbow			LWrist		
		X1	Y1	Z1	X2	Y2	Z2	X3	Y3	Z3	X4	Y4	Z4	X5	Y5	Z5	X6	Y6	Z6	X7	Y7	Z7	X8	Y8	Z8	X9	Y9	Z9	X10	Y10	Z10	X11	Y11	Z11	X12	Y12	Z12	X13	Y13	Z13	X14	Y14	Z14	X15	Y15	Z15	X16	Y16	Z16	X17	Y17	Z17	X18	Y18	Z18	X19	Y19	Z19	X20	Y20	Z20	X21	Y21	Z21	X22	Y22	Z22
0	0.0	171.97529127114512	548.1765474811182	0.0	142.5247198367862	543.7615856238514	0.0	117.48695074653537	654.2108630486441	0.0	88.03621755529244	766.1183994579613	0.0	114.54262711835668	794.1056341237153	0.0	95.39693070327037	795.5778463245994	0.0	76.2527487195339	785.2648898077	0.0	197.01087859567343	548.1807623876861	0.0	235.30057136576326	642.4185973265173	0.0	232.35350015198765	755.80798419157	0.0	273.59026258111965	777.9006186875131	0.0	276.53195299016556	774.9517413576104	0.0	223.51702534935117	776.4274344421273	0.0	224.99778259849757	411.22351109599117	0.0	267.7019977426215	343.4842601722851	0.0	267.70082430933445	389.1303100310752	0.0	164.62170546037166	424.47926493670053	0.0	129.27030708859013	502.52060230000455	0.0	143.9977279634093	573.2069971154822	0.0	255.92005051293327	442.1457586304576	0.0	257.3932588559562	514.298968250042	0.0	269.175455989119	580.57442062299	0.0
1	0.016666666666666666	172.40130529330014	547.0650806748416	0.0	142.7482901554775	543.2394235085064	0.0	117.82523188515908	655.2672355367058	0.0	87.53478854835978	766.1551867555631	0.0	115.01634369369802	793.8597712872754	0.0	96.2034535729094	796.0199504561787	0.0	76.02984510371479	784.5074480838061	0.0	196.91894927697032	546.6185399335326	0.0	235.54476418158117	642.7878250470084	0.0	232.26548218569704	756.8926480976894	0.0	272.84019896300634	780.6946067437856	0.0	275.5728818763764	776.3257071552665	0.0	223.28227973303757	776.0264132865741	0.0	225.76571793569687	411.2745878399067	0.0	267.7508479491685	345.28176377988547	0.0	268.1132714523707	389.69766166117427	0.0	166.0236102327461	424.22692915644245	0.0	129.54648344858037	502.5786075007297	0.0	143.87734219655096	573.2170188638108	0.0	256.56799326184483	441.83219680695674	0.0	258.2686104081484	514.5505482298859	0.0	270.1720502957253	579.939905459239	0.0
2	0.03333333333333333	172.76681177137016	546.2788549641496	0.0	142.90660995114527	542.8883873241582	0.0	118.06296138719068	656.1204951245436	0.0	87.14023596001235	766.1859619910992	0.0	115.42890375391633	793.7164119803886	0.0	96.87372816034701	796.3979824699337	0.0	75.83997426595619	784.0210132220101	0.0	196.8391645341888	545.5005597733274	0.0	235.7762383376659	643.1303425921443	0.0	232.22003875795275	757.7106203732212	0.0	272.26648257196916	782.825412480241	0.0	274.84916414557	777.4380780611339	0.0	223.08743691990193	775.790340441484	0.0	226.5328242541609	411.3807590951375	0.0	268.08021633062924	346.8309560654431	0.0	268.5999599781706	390.3285382466975	0.0	167.26311833253627	424.1042021814727	0.0	129.79110979906378	502.64348373511723	0.0	143.7665177565531	573.2164085634671	0.0	257.20355129128376	441.7226790911596	0.0	259.0799327479885	514.8185571632039	0.0	271.11024930569954	579.4877651194439	0.0
3	0.05	173.0384029774596	545.9195052139654	0.0	142.96580886511362	542.7926018691672	0.0	118.14625305735265	656.6973955334769	0.0	86.89535517948337	766.2275437554811	0.0	115.7587650823273	793.7091751023096	0.0	97.32458158958778	796.6724907186093	0.0	75.70276506464639	783.8622994673308	0.0	196.77187378277299	545.0204862648524	0.0	235.9936265132531	643.4745615157882	0.0	232.21022134350238	758.162924323877	0.0	271.9338758364418	784.0452845141167	0.0	274.4177950335251	778.1536484447992	0.0	222.94037048999206	775.7447800185912	0.0	227.30703100215922	411.58271822759554	0.0	268.79190033534786	348.03652354815085	0.0	269.2057334031902	391.0262431800828	0.0	168.28916260196624	424.1710453935013	0.0	130.00282753738907	502.7204271199339	0.0	143.65993323072027	573.2165245872673	0.0	257.8311513093134	441.9068743666845	0.0	259.80673167049287	515.0630966514609	0.0	271.96098922383214	579.293856812083	0.0
4	0.06666666666666667	173.19146928341578	545.8784414439441	0.0	142.93153876329626	542.8900347547074	0.0	118.08171232422863	657.0557448493377	0.0	86.7918600419281	766.300547100183	0.0	116.01445410232282	793.8022968378095	0.0	97.55037565834401	796.8457597901861	0.0	75.63367959204895	783.8824687381525	0.0	196.69918744491304	545.0687568560036	0.0	236.19552003535333	643.8827284032158	0.0	232.19567693837945	758.3350384545778	0.0	271.7852959728164	784.5732589251896	0.0	274.1817320975675	778.523581017091	0.0	222.80811213689702	775.7979896701448	0.0	228.0910484800432	411.9008627459617	0.0	269.7841078083322	348.9693613823568	0.0	269.92904671722494	391.7497441266317	0.0	169.1673086083281	424.4138210942317	0.0	130.20673039334338	502.8369441967435	0.0	143.55393379231413	573.245852980236	0.0	258.4753515227793	442.36738133986404	0.0	260.5036918210937	515.273997251577	0.0	272.7411194431535	579.3456179909845	0.0
5	0.08333333333333333	173.22578723525578	546.0153195002837	0.0	142.84188725346735	543.055011667629	0.0	117.92183868182313	657.2736012162246	0.0	86.8180207534401	766.4112161567034	0.0	116.18753007809514	793.9387900263738	0.0	97.57587272190746	796.9469336401893	0.0	75.65479359546049	783.9062785637732	0.0	196.61454564744443	545.402019644163	0.0	236.38249829658042	644.3919614484995	0.0	232.1563236806175	758.3717109505086	0.0	271.733311984461	784.7463163693478	0.0	274.05190148293696	778.6730136378585	0.0	222.6669692422903	775.8530798885532	0.0	228.88118492843822	412.3262627313301	0.0	270.921691797284	349.75809642154735	0.0	270.7475359132857	392.4628368811221	0.0	169.97828876253635	424.7808375030809	0.0	130.4162542118935	503.00769857595355	0.0	143.4716499192589	573.3348576949135	0.0	259.1693252831025	443.033851817814	0.0	261.23771671727104	515.50448822643	0.0	273.49606544736565	579.5870272756453	0.0
6	0.1	173.18830949143484	546.2397608501985	0.0	142.74599389975046	543.2277720651581	0.0	117.74247199195362	657.3842108917017	0.0	86.96532553726477	766.548087108208	0.0	116.23522276315599	794.0637584607009	0.0	97.41427865531807	796.9925267327635	0.0	75.77569662972186	783.8568903778216	0.0	196.54377955534602	545.8240093990347	0.0	236.5704837035449	644.9702312948303	0.0	232.10914402009686	758.3689743438202	0.0	271.73452936759344	784.7268523273349	0.0	274.0265614356822	778.6569379881256	0.0	222.5429300561944	775.8623011996756	0.0	229.686809693598	412.8150459063003	0.0	272.1686069396209	350.49201133943535	0.0	271.64987884251434	393.1511169771006	0.0	170.74307087836266	425.21259781244817	0.0	130.6136481428828	503.17787934254864	0.0	143.45768660511075	573.4999347329511	0.0	259.9335833502537	443.8014761418441	0.0	262.00902979481486	515.7984852437719	0.0	274.2572167394793	579.945014349279	0.0
